<?xml version="1.0" standalone="no"?>
<!DOCTYPE svg PUBLIC "-//W3C//DTD SVG 20010904//EN"
 "http://www.w3.org/TR/2001/REC-SVG-20010904/DTD/svg10.dtd">
<svg version="1.0" xmlns="http://www.w3.org/2000/svg"
 width="140.000000pt" height="230.000000pt" viewBox="0 0 140.000000 230.000000"
 preserveAspectRatio="xMidYMid meet">

<g transform="translate(0.000000,230.000000) scale(0.100000,-0.100000)"
fill="#000000" stroke="none">
<path d="M90 2278 c-33 -17 -51 -35 -67 -68 -29 -57 -29 -82 2 -118 14 -17 25
-34 25 -38 0 -5 -7 2 -16 14 -8 12 -19 22 -25 22 -5 0 -9 -64 -9 -154 0 -147
1 -156 22 -170 19 -13 19 -17 7 -32 -9 -12 -10 -15 -2 -10 13 7 17 -3 14 -37
-2 -15 1 -16 23 -6 19 9 32 9 48 1 l23 -11 -25 -1 c-23 -1 -23 -2 -5 -9 18 -8
16 -10 -16 -26 -42 -20 -74 -68 -63 -93 11 -26 11 -82 -1 -82 -5 0 -3 -5 5
-10 10 -6 11 -10 3 -10 -8 0 -13 -13 -13 -29 0 -23 5 -30 22 -33 21 -3 21 -5
-10 -21 l-32 -18 2 -619 c3 -607 3 -619 24 -646 11 -15 33 -37 48 -48 27 -21
37 -21 626 -21 589 0 599 0 626 21 15 11 37 33 48 48 20 26 21 42 24 378 l3
351 -39 56 c-39 56 -194 304 -246 393 -22 38 -25 51 -16 67 6 12 14 21 18 21
10 0 51 -64 176 -274 l106 -180 0 640 0 640 -22 44 c-17 33 -35 51 -68 68 -41
20 -57 22 -220 22 l-175 0 41 -19 c23 -10 44 -23 47 -29 4 -5 29 -7 57 -4 41
4 50 2 50 -11 0 -9 -7 -22 -15 -29 -9 -7 -22 -19 -30 -26 -8 -7 -15 -10 -15
-5 0 4 -4 2 -8 -4 -5 -9 -17 1 -35 29 -15 23 -27 38 -27 34 0 -4 -16 2 -35 14
-25 16 -35 18 -35 8 0 -7 -9 -2 -20 12 -20 24 -21 25 -35 6 -8 -11 -15 -22
-15 -25 0 -3 -14 -7 -32 -8 -22 -2 -41 5 -57 20 -14 12 -19 14 -12 5 11 -15
10 -19 -14 -30 -24 -11 -29 -10 -46 11 -12 14 -19 18 -19 10 0 -8 -8 -2 -18
14 -18 29 -40 34 -73 15 -17 -10 -23 -10 -26 0 -4 9 -54 12 -207 12 -189 0
-205 -1 -246 -22z m757 -85 c-3 -10 -5 -4 -5 12 0 17 2 24 5 18 2 -7 2 -21 0
-30z m-386 -35 l-9 -33 -1 32 c-1 17 2 40 6 50 12 30 16 -9 4 -49z m33 -3 c-9
-14 -18 -25 -20 -25 -2 0 2 11 8 25 6 14 15 25 20 25 5 0 1 -11 -8 -25z m820
-21 c15 -14 17 -14 22 0 11 28 26 17 19 -14 -5 -23 -3 -30 9 -30 18 0 19 -2
10 -24 -8 -21 -24 -20 -24 2 0 9 -15 24 -33 32 -17 8 -33 23 -35 33 -4 21 11
22 32 1z m-1134 -36 c17 -11 22 -10 30 2 5 8 13 11 17 6 4 -5 2 -11 -4 -13 -7
-3 -13 -13 -13 -24 0 -25 -21 -24 -48 1 -37 35 -24 54 18 28z m290 -49 c0 -16
9 -38 20 -49 11 -11 20 -28 20 -37 -1 -16 -2 -16 -15 1 -13 17 -15 17 -15 4 0
-9 5 -29 11 -45 6 -15 10 -73 9 -128 -1 -55 -2 -108 -1 -118 0 -12 -5 -17 -14
-13 -12 4 -12 0 0 -32 13 -32 14 -56 6 -117 -3 -18 -38 71 -39 96 0 13 -5 54
-11 90 -11 67 -16 292 -8 319 3 8 8 28 11 43 8 35 26 26 26 -14z m-234 -36
c-11 -11 -19 6 -11 24 8 17 8 17 12 0 3 -10 2 -21 -1 -24z m601 2 c0 -8 -4
-15 -9 -15 -10 0 -11 14 -1 23 9 10 10 9 10 -8z m263 -19 c0 -3 -4 -8 -10 -11
-5 -3 -10 -1 -10 4 0 6 5 11 10 11 6 0 10 -2 10 -4z m-70 -27 c-7 -11 -14 -18
-17 -15 -8 8 5 36 17 36 7 0 7 -6 0 -21z m-965 -9 c3 -5 -1 -10 -9 -10 -9 0
-16 5 -16 10 0 6 4 10 9 10 6 0 13 -4 16 -10z m324 -10 c11 -6 9 -10 -8 -19
-37 -20 -113 -20 -150 0 l-34 18 29 6 c16 4 34 8 39 10 14 6 107 -6 124 -15z
m-239 0 c13 -8 13 -10 -2 -10 -9 0 -20 5 -23 10 -8 13 5 13 25 0z m410 -21 c0
-14 -7 -19 -26 -19 -14 0 -23 3 -21 8 2 4 7 15 10 24 8 23 37 12 37 -13z m281
14 c7 -10 9 -15 5 -11 -5 4 -14 4 -20 -2 -8 -6 -12 -3 -13 11 -2 24 10 25 28
2z m179 -36 c0 -8 -7 -14 -15 -14 -11 0 -12 4 -4 14 6 7 13 13 15 13 2 0 4 -6
4 -13z m-120 -7 c0 -5 -5 -10 -11 -10 -5 0 -7 5 -4 10 3 6 8 10 11 10 2 0 4
-4 4 -10z m-560 -241 c0 -6 -4 -7 -10 -4 -5 3 -10 11 -10 16 0 6 5 7 10 4 6
-3 10 -11 10 -16z m530 9 c0 -4 -8 -12 -18 -17 -14 -7 -18 -6 -18 8 0 9 8 17
18 17 10 0 18 -4 18 -8z m-305 -18 c-3 -11 -2 -35 4 -55 5 -19 6 -33 1 -30 -5
3 -10 0 -12 -7 -3 -7 -11 8 -20 33 -8 24 -18 51 -22 60 -5 13 0 16 24 17 26 1
30 -2 25 -18z m-347 -52 c20 -12 30 -24 24 -26 -6 -2 -28 8 -49 22 -46 32 -25
35 25 4z m246 -74 c3 -8 2 -12 -4 -9 -6 3 -10 10 -10 16 0 14 7 11 14 -7z
m461 -24 c-3 -4 0 -10 7 -12 6 -2 -3 -14 -21 -27 l-32 -23 20 35 c11 19 17 38
13 43 -4 4 -1 4 6 0 7 -4 10 -11 7 -16z m-618 -26 c-3 -3 -12 -4 -19 -1 -8 3
-5 6 6 6 11 1 17 -2 13 -5z m-97 -14 c0 -5 -8 -10 -17 -10 -15 0 -16 2 -3 10
19 12 20 12 20 0z m747 -7 c-4 -3 0 -11 9 -17 8 -6 16 -21 17 -33 0 -12 4 -20
8 -17 4 2 24 -26 45 -63 20 -38 50 -85 67 -106 31 -40 33 -61 2 -27 -10 11
-27 20 -37 20 -11 0 -16 5 -13 11 14 22 -6 56 -50 88 -45 32 -46 35 -42 76 4
31 1 45 -9 49 -17 7 -19 26 -2 26 6 0 8 -3 5 -7z m-840 -10 c-9 -2 -15 -9 -12
-14 7 -11 3 -11 -20 -3 -13 5 -14 8 -3 15 7 5 22 8 33 8 17 -1 17 -2 2 -6z
m753 -16 c0 -2 -10 -12 -22 -23 l-23 -19 19 23 c18 21 26 27 26 19z m-303 -53
c-3 -3 -12 -4 -19 -1 -8 3 -5 6 6 6 11 1 17 -2 13 -5z m-427 -88 c0 -2 -9 -6
-20 -9 -11 -3 -18 -1 -14 4 5 9 34 13 34 5z m-33 -108 c-3 -7 -5 -2 -5 12 0
14 2 19 5 13 2 -7 2 -19 0 -25z m1093 -111 c0 -15 -9 -8 -34 24 -21 28 -30 47
-23 51 14 8 57 -49 57 -75z m31 -59 c9 -19 9 -21 -2 -10 -7 6 -21 12 -31 12
-10 0 -18 5 -18 10 0 19 39 10 51 -12z m19 -78 c0 -5 -2 -10 -4 -10 -3 0 -8 5
-11 10 -3 6 -1 10 4 10 6 0 11 -4 11 -10z"/>
<path d="M450 1715 c0 -8 4 -15 10 -15 5 0 7 7 4 15 -4 8 -8 15 -10 15 -2 0
-4 -7 -4 -15z"/>
<path d="M0 1691 c0 -11 3 -27 6 -36 5 -13 8 -14 15 -3 13 21 10 45 -6 52 -10
3 -15 -1 -15 -13z"/>
<path d="M1 1574 c0 -11 3 -14 6 -6 3 7 2 16 -1 19 -3 4 -6 -2 -5 -13z"/>
</g>
</svg>
